<svg width="19" height="18" viewBox="0 0 19 18" fill="none" xmlns="http://www.w3.org/2000/svg">
<path d="M17.5542 11.8159C16.4522 11.8159 15.3701 11.6436 14.3447 11.3047C13.8423 11.1333 13.2246 11.2905 12.918 11.6055L10.894 13.1333C8.54686 11.8804 7.10105 10.4351 5.86524 8.10552L7.34813 6.13434C7.73339 5.74959 7.87158 5.18755 7.70602 4.66021C7.36571 3.62943 7.19283 2.54788 7.19283 1.44538C7.19288 0.64893 6.54493 0.000976562 5.74852 0.000976562H2.44289C1.64649 0.000976562 0.998535 0.64893 0.998535 1.44534C0.998535 10.5742 8.42532 18.001 17.5542 18.001C18.3506 18.001 18.9986 17.353 18.9986 16.5566V13.2602C18.9985 12.4639 18.3506 11.8159 17.5542 11.8159Z" fill="#E5322E"/>
</svg>
