<svg width="20" height="21" viewBox="0 0 20 21" fill="none" xmlns="http://www.w3.org/2000/svg">
<path d="M0.347305 18.9746L4.1919 15.1308C3.02673 13.6058 2.38769 11.7561 2.38743 9.80419C2.38743 7.45198 3.30374 5.2404 4.96762 3.57716C6.63121 1.91392 8.84297 0.997803 11.196 0.997803C13.5487 0.997803 15.7607 1.91392 17.4243 3.57716C20.8586 7.011 20.8586 12.598 17.4243 16.0312C15.7607 17.6948 13.5487 18.6109 11.196 18.6109C9.24367 18.6106 7.39355 17.9717 5.86823 16.8068L2.02363 20.6506C1.79238 20.8821 1.48878 20.9978 1.18547 20.9978C0.882155 20.9978 0.578552 20.8821 0.347305 20.6506C-0.115769 20.1879 -0.115769 19.4373 0.347305 18.9746ZM15.748 14.3552C18.2578 11.8459 18.2575 7.76276 15.748 5.25313C14.5321 4.03782 12.9154 3.36824 11.196 3.36824C9.47622 3.36824 7.8598 4.03782 6.64395 5.25313C5.42809 6.46874 4.75837 8.0851 4.75837 9.80419C4.75837 11.5236 5.42809 13.1396 6.64395 14.3552C7.8598 15.5709 9.47622 16.2404 11.196 16.2404C12.9154 16.2404 14.5321 15.5709 15.748 14.3552Z" fill="#E5322E"/>
</svg>
