<svg width="79" height="39" viewBox="0 0 79 39" fill="none" xmlns="http://www.w3.org/2000/svg">
<path d="M1.38916 33.3886V29.5751H2.36212V31.1144H2.7169L3.95864 29.5751H5.13049L3.60117 31.4471L5.14662 33.3886H3.96939L2.83785 31.9511H2.36212V33.3886H1.38916Z" fill="white"/>
<path d="M7.34487 35.0336H6.34314C6.56574 34.5196 6.74007 33.8927 6.91179 33.468L5.41472 29.5751H6.44681L7.39827 32.4551H7.44127L8.39542 29.5751H9.4302L7.77724 33.8504C7.48754 34.6096 7.34487 35.0336 7.34487 35.0336Z" fill="white"/>
<path d="M9.87502 32.3433H10.8399C10.8489 32.4857 10.9179 32.5958 11.0469 32.6736C11.1759 32.7513 11.3434 32.7902 11.5495 32.7902C11.7591 32.7902 11.9356 32.748 12.079 32.6636C12.2241 32.5776 12.2967 32.4476 12.2967 32.2738C12.2967 32.1712 12.2689 32.081 12.2134 32.0032C12.1578 31.9238 12.0799 31.8625 11.9795 31.8195C11.8792 31.7764 11.7609 31.7549 11.6247 31.7549H10.9931V31.1169H11.6247C11.8272 31.1169 11.9804 31.0738 12.0843 30.9878C12.1901 30.9017 12.2429 30.7933 12.2429 30.6625C12.2429 30.5218 12.1874 30.4076 12.0763 30.3199C11.967 30.2322 11.8156 30.1883 11.622 30.1883C11.4285 30.1883 11.2673 30.2289 11.1383 30.31C11.011 30.3911 10.9447 30.4953 10.9394 30.6228H9.97984C9.98342 30.401 10.0551 30.2082 10.1949 30.0443C10.3364 29.8804 10.5263 29.753 10.7647 29.662C11.0048 29.5709 11.2753 29.5254 11.5764 29.5254C11.8989 29.5254 12.1775 29.5701 12.4122 29.6595C12.647 29.7489 12.8279 29.8738 12.9552 30.0344C13.0824 30.1933 13.146 30.3803 13.146 30.5955C13.146 30.8024 13.0761 30.9737 12.9364 31.1094C12.7966 31.2435 12.6084 31.3395 12.3719 31.3974V31.4371C12.535 31.4454 12.6819 31.4884 12.8127 31.5662C12.9435 31.6424 13.0474 31.7458 13.1245 31.8766C13.2015 32.0073 13.2401 32.1588 13.2401 32.3309C13.2401 32.5643 13.1675 32.7662 13.0224 32.9367C12.8772 33.1056 12.6774 33.2355 12.423 33.3265C12.1703 33.4176 11.881 33.4631 11.5549 33.4631C11.2377 33.4631 10.9537 33.4192 10.7028 33.3315C10.4538 33.2421 10.2558 33.1138 10.1089 32.9467C9.96192 32.7795 9.88398 32.5784 9.87502 32.3433Z" fill="white"/>
<path d="M15.8069 33.4631C15.4037 33.4631 15.0543 33.3811 14.7586 33.2173C14.463 33.0534 14.2336 32.8242 14.0706 32.5296C13.9093 32.2349 13.8287 31.8907 13.8287 31.4967C13.8287 31.1028 13.9093 30.7577 14.0706 30.4614C14.2336 30.1651 14.463 29.9351 14.7586 29.7712C15.0543 29.6073 15.4037 29.5254 15.8069 29.5254C16.21 29.5254 16.5594 29.6073 16.8551 29.7712C17.1507 29.9351 17.3792 30.1651 17.5404 30.4614C17.7035 30.7577 17.785 31.1028 17.785 31.4967C17.785 31.8907 17.7035 32.2349 17.5404 32.5296C17.3792 32.8242 17.1507 33.0534 16.8551 33.2173C16.5594 33.3811 16.21 33.4631 15.8069 33.4631ZM15.8122 32.7431C16.0308 32.7431 16.2136 32.6876 16.3605 32.5767C16.5075 32.4642 16.6168 32.3136 16.6884 32.1249C16.7619 31.9362 16.7986 31.726 16.7986 31.4942C16.7986 31.2609 16.7619 31.0498 16.6884 30.8611C16.6168 30.6708 16.5075 30.5193 16.3605 30.4068C16.2136 30.2942 16.0308 30.238 15.8122 30.238C15.5883 30.238 15.4019 30.2942 15.2532 30.4068C15.1063 30.5193 14.9961 30.6708 14.9226 30.8611C14.8509 31.0498 14.8151 31.2609 14.8151 31.4942C14.8151 31.726 14.8509 31.9362 14.9226 32.1249C14.9961 32.3136 15.1063 32.4642 15.2532 32.5767C15.4019 32.6876 15.5883 32.7431 15.8122 32.7431Z" fill="white"/>
<path d="M18.6108 33.3886V29.5751H20.3444C20.8336 29.5751 21.2197 29.6653 21.5028 29.8457C21.7877 30.0261 21.9302 30.2777 21.9302 30.6004C21.9302 30.814 21.8496 30.9886 21.6883 31.1243C21.5288 31.2584 21.3111 31.3486 21.0352 31.3949C21.252 31.4115 21.4419 31.462 21.605 31.5464C21.7698 31.6308 21.8988 31.7417 21.992 31.8791C22.0852 32.0165 22.1318 32.1745 22.1318 32.3533C22.1318 32.5635 22.0717 32.7464 21.9517 32.902C21.8334 33.0559 21.6605 33.1759 21.433 33.262C21.2072 33.3464 20.933 33.3886 20.6105 33.3886H18.6108ZM19.522 32.681H20.6105C20.7897 32.681 20.9304 32.6421 21.0325 32.5643C21.1346 32.4849 21.1857 32.3773 21.1857 32.2416C21.1857 32.0843 21.1346 31.961 21.0325 31.8716C20.9304 31.7806 20.7897 31.7351 20.6105 31.7351H19.522V32.681ZM19.522 31.1541H20.3632C20.4958 31.1541 20.6096 31.1367 20.7046 31.102C20.7996 31.0656 20.8721 31.0151 20.9223 30.9505C20.9725 30.8843 20.9975 30.8057 20.9975 30.7147C20.9975 30.5839 20.9393 30.4813 20.8228 30.4068C20.7082 30.3323 20.5487 30.2951 20.3444 30.2951H19.522V31.1541Z" fill="white"/>
<path d="M25.7703 31.1094V31.8468H23.5717V31.1094H25.7703ZM23.8728 29.5751V33.3886H22.9347V29.5751H23.8728ZM26.4073 29.5751V33.3886H25.472V29.5751H26.4073Z" fill="white"/>
<path d="M29.1925 33.4631C28.7893 33.4631 28.4399 33.3811 28.1442 33.2173C27.8486 33.0534 27.6192 32.8242 27.4562 32.5296C27.2949 32.2349 27.2143 31.8907 27.2143 31.4967C27.2143 31.1028 27.2949 30.7577 27.4562 30.4614C27.6192 30.1651 27.8486 29.9351 28.1442 29.7712C28.4399 29.6073 28.7893 29.5254 29.1925 29.5254C29.5956 29.5254 29.945 29.6073 30.2407 29.7712C30.5363 29.9351 30.7648 30.1651 30.9261 30.4614C31.0891 30.7577 31.1706 31.1028 31.1706 31.4967C31.1706 31.8907 31.0891 32.2349 30.9261 32.5296C30.7648 32.8242 30.5363 33.0534 30.2407 33.2173C29.945 33.3811 29.5956 33.4631 29.1925 33.4631ZM29.1978 32.7431C29.4164 32.7431 29.5992 32.6876 29.7461 32.5767C29.8931 32.4642 30.0024 32.3136 30.074 32.1249C30.1475 31.9362 30.1842 31.726 30.1842 31.4942C30.1842 31.2609 30.1475 31.0498 30.074 30.8611C30.0024 30.6708 29.8931 30.5193 29.7461 30.4068C29.5992 30.2942 29.4164 30.238 29.1978 30.238C28.9739 30.238 28.7875 30.2942 28.6388 30.4068C28.4919 30.5193 28.3817 30.6708 28.3082 30.8611C28.2365 31.0498 28.2007 31.2609 28.2007 31.4942C28.2007 31.726 28.2365 31.9362 28.3082 32.1249C28.3817 32.3136 28.4919 32.4642 28.6388 32.5767C28.7875 32.6876 28.9739 32.7431 29.1978 32.7431Z" fill="white"/>
<path d="M32.9345 32.172L34.5874 29.5751H35.5873V33.3886H34.6465V30.7891L32.999 33.3886H31.9964V29.5751H32.9345V32.172ZM34.3213 28.2642H35.0497C35.0497 28.5538 34.9359 28.7889 34.7084 28.9693C34.4826 29.148 34.1762 29.2374 33.7892 29.2374C33.4057 29.2374 33.1002 29.148 32.8726 28.9693C32.6469 28.7889 32.5349 28.5538 32.5367 28.2642H33.2597C33.2597 28.3833 33.2991 28.4901 33.3779 28.5844C33.4586 28.6771 33.5956 28.7235 33.7892 28.7235C33.9791 28.7235 34.1144 28.6771 34.195 28.5844C34.2774 28.4917 34.3195 28.385 34.3213 28.2642Z" fill="white"/>
<path d="M41.9498 29.5751V32.7182H42.5814V34.6151H41.63V33.3886H38.4638V29.5751H39.4018V32.6512H41.0198V29.5751H41.9498Z" fill="white"/>
<path d="M45.1623 33.4631C44.7484 33.4631 44.3909 33.3836 44.0899 33.2247C43.7907 33.0642 43.5604 32.8374 43.3992 32.5445C43.2379 32.2498 43.1573 31.9031 43.1573 31.5042C43.1573 31.1119 43.2379 30.7676 43.3992 30.4713C43.5622 30.1734 43.7898 29.9417 44.0819 29.7762C44.3739 29.609 44.7171 29.5254 45.1113 29.5254C45.3657 29.5254 45.6058 29.5635 45.8316 29.6396C46.0591 29.7141 46.2598 29.83 46.4336 29.9872C46.6092 30.1444 46.7472 30.3447 46.8475 30.588C46.9479 30.8297 46.998 31.1177 46.998 31.452V31.7276H43.6142V31.1218H46.0654C46.0636 30.9497 46.0233 30.7966 45.9445 30.6625C45.8656 30.5268 45.7554 30.42 45.6139 30.3422C45.4741 30.2644 45.311 30.2255 45.1247 30.2255C44.9258 30.2255 44.7511 30.2702 44.6006 30.3596C44.4501 30.4473 44.3327 30.5632 44.2485 30.7072C44.1661 30.8495 44.124 31.006 44.1222 31.1764V31.7053C44.1222 31.9271 44.1661 32.1174 44.2539 32.2763C44.3417 32.4336 44.4644 32.5544 44.6221 32.6388C44.7798 32.7216 44.9643 32.7629 45.1758 32.7629C45.3173 32.7629 45.4454 32.7447 45.5601 32.7083C45.6748 32.6702 45.7742 32.6148 45.8584 32.542C45.9427 32.4691 46.0063 32.3789 46.0493 32.2713L46.9577 32.3657C46.9004 32.5875 46.7911 32.7811 46.6298 32.9467C46.4704 33.1105 46.2661 33.238 46.017 33.329C45.768 33.4184 45.4831 33.4631 45.1623 33.4631Z" fill="white"/>
<path d="M48.528 29.5751L49.3612 30.9828L50.2079 29.5751H51.2373L49.9929 31.4818L51.2588 33.3886H50.2348L49.3612 32.0156L48.4958 33.3886H47.4637L48.7216 31.4818L47.496 29.5751H48.528Z" fill="white"/>
<path d="M51.4216 18.8916C51.4216 23.4155 50.4199 26.6028 45.8082 26.6028C40.8477 26.6028 40.1948 22.5056 40.1948 18.8916C40.1948 13.9564 41.3493 11.1804 45.8082 11.1804C50.56 11.1804 51.4216 14.0593 51.4216 18.8916ZM48.1317 18.8916C48.1317 17.1965 48.2354 14.1113 45.8082 14.1113C43.376 14.1113 43.4847 17.1928 43.4847 18.8916C43.4847 20.5946 43.3742 23.672 45.8082 23.672C48.2373 23.672 48.1317 20.5909 48.1317 18.8916Z" fill="white"/>
<path d="M3.91698 26.3974H-0.000976562L4.41325 11.3855H9.376L13.7902 26.3974H9.87227L6.94686 15.5196H6.84238L3.91698 26.3974ZM3.18563 20.4747H10.5514V23.524H3.18563V20.4747Z" fill="white"/>
<path d="M15.0783 26.3974V11.3855H20.8768C21.8955 11.3855 22.7509 11.5394 23.4431 11.8473C24.1396 12.1552 24.6642 12.5901 25.0168 13.152C25.3738 13.714 25.5522 14.3761 25.5522 15.1385C25.5522 15.6907 25.4434 16.194 25.2258 16.6485C25.0124 17.1029 24.7121 17.4841 24.3246 17.7919C23.9372 18.0949 23.4844 18.305 22.9664 18.4223V18.5689C23.541 18.5934 24.0634 18.7571 24.5336 19.06C25.0037 19.3581 25.3781 19.771 25.6567 20.2988C25.9353 20.8217 26.0746 21.4374 26.0746 22.146C26.0746 22.9669 25.8831 23.6975 25.5 24.3377C25.1213 24.9778 24.5815 25.4811 23.8806 25.8476C23.1797 26.2141 22.3439 26.3974 21.3731 26.3974H15.0783ZM18.7089 23.3485H20.4067C21.0161 23.3485 21.4732 23.2214 21.778 22.9673C22.0827 22.7083 22.235 22.3272 22.235 21.8238C22.235 21.472 22.1632 20.7627 22.0196 20.5183C21.8759 20.274 21.6713 20.0883 21.4057 19.9612C21.1446 19.8342 20.8289 19.7707 20.4589 19.7707H18.7089V23.3485ZM18.7089 17.6604H20.1977C20.5155 17.6604 21.0401 17.4918 21.0401 17.4918C21.0401 17.4918 21.4732 17.2181 21.6082 17.008C21.7475 16.793 21.8146 16.4239 21.8146 15.807C21.8146 15.3427 21.6691 14.7883 21.3731 14.544C21.0771 14.2947 20.7027 14.1701 20.25 14.1701H18.7089V17.6604Z" fill="white"/>
<path d="M26.9954 14.4637V11.3855H38.6186V14.4637H34.5962V26.3974H31.0178V14.4637H26.9954Z" fill="white"/>
<path fill-rule="evenodd" clip-rule="evenodd" d="M54.7725 39L78.9991 19.5L54.7725 0V39ZM57.9328 11.8559V25.9774H61.2472V20.8036H61.337L64.3256 25.9774H68.3954L65.0913 20.3912C65.1447 20.3628 65.2088 20.3328 65.2864 20.3014C66.1173 19.9666 66.7618 19.471 67.2198 18.8145C67.6825 18.158 67.9138 17.3515 67.9138 16.395C67.9138 15.4472 67.6896 14.6341 67.241 13.9559C66.7925 13.2776 66.2188 12.6603 65.4115 12.2994C63.6455 11.7081 61.6345 11.7659 59.6588 11.8226C59.0781 11.8393 58.5004 11.8559 57.9328 11.8559ZM61.2472 18.7447L63.0225 18.6123C64.5805 18.5167 64.5805 16.6068 64.5805 15.9341C64.5805 15.1935 63.7496 13.9863 62.5031 13.9863H61.2472V18.7447Z" fill="#E5322E"/>
</svg>
